<?xml version="1.0" encoding="UTF-8"?>
<!DOCTYPE svg PUBLIC "-//W3C//DTD SVG 1.1//EN" "http://www.w3.org/Graphics/SVG/1.1/DTD/svg11.dtd">
<!-- Creator: CorelDRAW X8 -->
<svg xmlns="http://www.w3.org/2000/svg" xml:space="preserve" width="542px" height="236px" version="1.1" style="shape-rendering:geometricPrecision; text-rendering:geometricPrecision; image-rendering:optimizeQuality; fill-rule:evenodd; clip-rule:evenodd"
viewBox="0 0 1884 821"
 xmlns:xlink="http://www.w3.org/1999/xlink">
 <defs>
  <style type="text/css">
   <![CDATA[
    .fil3 {fill:#FEFEFE}
    .fil2 {fill:#2857A8;fill-rule:nonzero}
    .fil0 {fill:#E32228;fill-rule:nonzero}
    .fil1 {fill:#F5D123;fill-rule:nonzero}
   ]]>
  </style>
 </defs>
 <g id="Capa_x0020_1">
  <metadata id="CorelCorpID_0Corel-Layer"/>
  <path class="fil0" d="M41 821c500,-169 1226,-320 1840,-262 -148,-44 -301,-72 -458,-85 -357,5 -723,71 -1042,165 -117,50 -231,110 -340,182z"/>
  <path class="fil1" d="M0 729c72,-28 144,-54 217,-77l0 0 -9 2c193,-101 401,-169 611,-207l8 -47c-27,5 -54,10 -81,16l-5 28 -108 0 0 -1c-230,60 -449,154 -633,286zm1523 -300c4,0 8,0 12,0l-12 0 0 0zm15 0c8,0 17,0 25,0 -8,0 -17,0 -25,0zm27 0c111,0 218,6 319,17 -149,-45 -318,-73 -496,-81 -6,13 -12,25 -16,34 -2,4 -4,7 -6,11 76,3 152,9 225,19 -8,0 -17,0 -26,0zm-336 -67c-44,1 -89,3 -134,6 19,11 48,2 62,-3l-8 45c29,-2 58,-2 87,-3l-7 -45zm-256 17c-12,2 -23,3 -35,4l-8 46c22,-3 43,-5 64,-8 -3,-3 -5,-6 -8,-9 -7,-9 -11,-20 -13,-33z"/>
  <path class="fil2" d="M1366 410c2,-4 4,-7 6,-11 30,-63 141,-299 141,-299l-103 0 -89 209 -13 -209 -114 0 42 307c-29,1 -58,1 -87,3l8 -45c-15,5 -46,15 -64,1 -11,-8 -13,-21 -7,-52l24 -137 60 0 13 -78 -59 0 17 -99 -112 15 -54 305c-7,35 -6,69 11,92 3,3 5,6 8,9 -21,3 -42,5 -64,8l40 -223c5,-33 -1,-57 -16,-76 -20,-25 -60,-42 -115,-42 -56,0 -103,11 -149,32l-57 324 108 0 48 -274c9,-3 21,-5 37,-5 15,0 25,3 31,10 6,7 7,16 5,29l-43 243c-210,38 -418,106 -611,207l9 -2c-65,33 -129,71 -191,112 493,-204 1219,-355 1839,-262 -111,-33 -226,-58 -342,-73 23,0 45,0 68,0 -73,-10 -149,-16 -225,-19zm-825 -197c-93,9 -197,20 -212,118 -14,92 47,126 133,126 57,0 112,-11 147,-28l37 -208c7,-42 2,-73 -18,-97 -20,-24 -54,-36 -102,-36 -46,0 -103,8 -148,22l9 74c30,-14 71,-22 109,-22 22,0 35,3 43,12 6,7 6,16 4,27l-2 12zm-30 171l0 0c-9,4 -20,6 -33,6 -43,0 -49,-30 -45,-57 6,-43 41,-55 98,-62l-20 113zm-215 57l12 -88c-26,13 -52,20 -79,20 -56,-1 -75,-44 -63,-109 12,-71 53,-95 104,-95 28,-1 45,6 61,15l26 -83c-26,-10 -58,-13 -92,-13 -102,0 -189,57 -209,171 -20,112 34,191 140,195 41,1 72,-5 100,-13z"/>
  <polygon class="fil3" points="624,508 636,522 653,517 643,531 655,546 637,540 627,554 626,536 608,530 625,525 "/>
  <polygon class="fil3" points="726,481 737,497 755,492 744,506 756,521 738,514 727,528 727,510 709,504 727,499 "/>
  <polygon class="fil3" points="842,458 851,474 869,471 857,484 867,500 850,492 838,504 839,486 822,478 840,475 "/>
  <polygon class="fil3" points="959,440 967,457 985,456 972,468 980,485 964,475 951,486 954,469 938,459 956,458 "/>
  <polygon class="fil3" points="1067,428 1076,444 1094,443 1081,455 1090,471 1074,462 1061,474 1064,456 1047,447 1065,445 "/>
  <polygon class="fil3" points="1167,416 1175,433 1193,432 1180,443 1188,461 1172,450 1159,462 1162,444 1146,434 1164,433 "/>
  <polygon class="fil3" points="1269,410 1274,428 1292,430 1277,440 1283,458 1269,445 1254,455 1260,438 1245,425 1263,427 "/>
  <polygon class="fil3" points="1374,416 1379,434 1397,436 1383,445 1388,463 1374,451 1359,460 1365,443 1351,430 1369,433 "/>
 </g>
</svg>
